<svg width="16" height="16" viewBox="0 0 16 16" fill="none" xmlns="http://www.w3.org/2000/svg">
<mask id="mask0_1037_2304" style="mask-type:alpha" maskUnits="userSpaceOnUse" x="0" y="0" width="16" height="16">
<rect width="16" height="16" fill="#D9D9D9"/>
</mask>
<g mask="url(#mask0_1037_2304)">
<path d="M8.00476 14.3999C7.12388 14.3999 6.29454 14.2332 5.51676 13.8999C4.73899 13.5665 4.05843 13.1082 3.4751 12.5249C2.89176 11.9415 2.43343 11.2612 2.1001 10.4839C1.76676 9.70652 1.6001 8.87597 1.6001 7.99219C1.6001 7.10841 1.76676 6.28041 2.1001 5.50819C2.43343 4.73596 2.89176 4.05819 3.4751 3.47485C4.05843 2.89152 4.73876 2.43319 5.5161 2.09985C6.29343 1.76652 7.12399 1.59985 8.00776 1.59985C8.89154 1.59985 9.71954 1.76652 10.4918 2.09985C11.264 2.43319 11.9418 2.89152 12.5251 3.47485C13.1084 4.05819 13.5668 4.73719 13.9001 5.51185C14.2334 6.28663 14.4001 7.11441 14.4001 7.99519C14.4001 8.87608 14.2334 9.70541 13.9001 10.4832C13.5668 11.261 13.1084 11.9415 12.5251 12.5249C11.9418 13.1082 11.2628 13.5665 10.4881 13.8999C9.71332 14.2332 8.88554 14.3999 8.00476 14.3999Z" fill="white"/>
</g>
</svg>
