<svg width="20" height="20" viewBox="0 0 20 20" fill="none" xmlns="http://www.w3.org/2000/svg">
<mask id="mask0_886_4487" style="mask-type:alpha" maskUnits="userSpaceOnUse" x="0" y="0" width="20" height="20">
<rect width="20" height="20" fill="#D9D9D9"/>
</mask>
<g mask="url(#mask0_886_4487)">
<path d="M8.39583 13.5208L10 11.9166L11.6042 13.5208L13.0208 12.1041L11.4167 10.5L13.0208 8.89579L11.6042 7.47913L10 9.08329L8.39583 7.47913L6.97916 8.89579L8.58333 10.5L6.97916 12.1041L8.39583 13.5208ZM6.27083 17.7083C5.57638 17.7083 4.99305 17.4722 4.52083 17C4.04861 16.5277 3.81249 15.9444 3.81249 15.25V5.72913H2.33333V3.27079H7.52083V1.79163H12.4375V3.27079H17.6667V5.72913H16.1875V15.25C16.1875 15.9444 15.9514 16.5277 15.4792 17C15.0069 17.4722 14.4236 17.7083 13.7292 17.7083H6.27083Z" fill="white"/>
</g>
</svg>
